<svg width="460" height="185" viewBox="0 0 460 185" xmlns="http://www.w3.org/2000/svg" role="img" aria-label="starforge StarForge score: 94 out of 100, Launch-ready">
  <rect x="0.5" y="0.5" width="459" height="184" rx="14" fill="#FFFFFF" stroke="#D9DED1"/>
  <g font-family="-apple-system,BlinkMacSystemFont,'Segoe UI',Roboto,Helvetica,Arial,sans-serif">
    <text x="24" y="34" font-size="13" font-weight="700" fill="#17231B">★ StarForge</text>
    <text x="436" y="34" text-anchor="end" font-size="13" fill="#5B6B5E">starforge</text>
    <line x1="24" y1="46" x2="436" y2="46" stroke="#D9DED1"/>

    <circle cx="78" cy="112" r="40" fill="none" stroke="#E8ECE4" stroke-width="10"/>
    <circle cx="78" cy="112" r="40" fill="none" stroke="#2F8F4E" stroke-width="10" stroke-linecap="round" stroke-dasharray="251.3" stroke-dashoffset="15.1" transform="rotate(-90 78 112)"/>
    <text x="78" y="114" text-anchor="middle" font-size="30" font-weight="800" fill="#17231B">94</text>
    <text x="78" y="134" text-anchor="middle" font-size="11" fill="#5B6B5E">/ 100</text>
    <text x="78" y="167" text-anchor="middle" font-size="12" font-weight="700" fill="#2F8F4E">Launch-ready</text>

    <text x="162" y="66" font-size="12" font-weight="600" fill="#17231B">First impression</text><text x="434" y="66" text-anchor="end" font-size="12" fill="#5B6B5E">100%</text><rect x="162" y="72" width="272" height="7" rx="3.5" fill="#E8ECE4"/><rect x="162" y="72" width="272" height="7" rx="3.5" fill="#2F8F4E"/><text x="162" y="93" font-size="12" font-weight="600" fill="#17231B">Runnability</text><text x="434" y="93" text-anchor="end" font-size="12" fill="#5B6B5E">100%</text><rect x="162" y="99" width="272" height="7" rx="3.5" fill="#E8ECE4"/><rect x="162" y="99" width="272" height="7" rx="3.5" fill="#2F8F4E"/><text x="162" y="120" font-size="12" font-weight="600" fill="#17231B">Trust &amp; quality</text><text x="434" y="120" text-anchor="end" font-size="12" fill="#5B6B5E">100%</text><rect x="162" y="126" width="272" height="7" rx="3.5" fill="#E8ECE4"/><rect x="162" y="126" width="272" height="7" rx="3.5" fill="#2F8F4E"/><text x="162" y="147" font-size="12" font-weight="600" fill="#17231B">Growth &amp; community</text><text x="434" y="147" text-anchor="end" font-size="12" fill="#5B6B5E">70%</text><rect x="162" y="153" width="272" height="7" rx="3.5" fill="#E8ECE4"/><rect x="162" y="153" width="190" height="7" rx="3.5" fill="#2F8F4E"/>
  </g>
</svg>
