<svg width="1200" height="675" viewBox="0 0 1200 675" fill="none" xmlns="http://www.w3.org/2000/svg">
  <rect width="1200" height="675" fill="#F7F8F5"/>
  <rect x="72" y="64" width="1056" height="547" rx="20" fill="#FFFFFF" stroke="#D9DED1" stroke-width="2"/>
  <text x="112" y="133" fill="#17231B" font-family="Arial, sans-serif" font-size="34" font-weight="800">StarForge</text>
  <text x="112" y="184" fill="#344138" font-family="Arial, sans-serif" font-size="22">Audit, polish, and launch GitHub projects.</text>
  <rect x="112" y="236" width="380" height="252" rx="14" fill="#152018"/>
  <text x="142" y="296" fill="#EEF5E8" font-family="Consolas, monospace" font-size="23">StarForge score</text>
  <text x="142" y="398" fill="#EEF5E8" font-family="Arial, sans-serif" font-size="96" font-weight="800">94</text>
  <text x="272" y="398" fill="#C8D3C1" font-family="Arial, sans-serif" font-size="28" font-weight="700">/100</text>
  <rect x="142" y="431" width="300" height="14" rx="7" fill="#354238"/>
  <rect x="142" y="431" width="282" height="14" rx="7" fill="#D6A844"/>
  <rect x="548" y="236" width="500" height="56" rx="12" fill="#FBFCF8" stroke="#E3E6DD"/>
  <circle cx="580" cy="264" r="11" fill="#2F7A49"/>
  <text x="608" y="272" fill="#17231B" font-family="Arial, sans-serif" font-size="20" font-weight="700">README opens with a clear promise</text>
  <rect x="548" y="314" width="500" height="56" rx="12" fill="#FBFCF8" stroke="#E3E6DD"/>
  <circle cx="580" cy="342" r="11" fill="#2F7A49"/>
  <text x="608" y="350" fill="#17231B" font-family="Arial, sans-serif" font-size="20" font-weight="700">Quickstart is copy-pasteable</text>
  <rect x="548" y="392" width="500" height="56" rx="12" fill="#FBFCF8" stroke="#E3E6DD"/>
  <circle cx="580" cy="420" r="11" fill="#2F7A49"/>
  <text x="608" y="428" fill="#17231B" font-family="Arial, sans-serif" font-size="20" font-weight="700">Demo or screenshot is present</text>
  <rect x="548" y="470" width="500" height="56" rx="12" fill="#FBFCF8" stroke="#E3E6DD"/>
  <circle cx="580" cy="498" r="11" fill="#B85B42"/>
  <text x="608" y="506" fill="#17231B" font-family="Arial, sans-serif" font-size="20" font-weight="700">Roadmap shows momentum</text>
</svg>
